<mxfile host="app.diagrams.net" modified="2021-01-01T07:07:33.641Z" agent="5.0 (Macintosh; Intel Mac OS X 10_15_6) AppleWebKit/537.36 (KHTML, like Gecko) Chrome/86.0.4240.193 Safari/537.36" etag="QgDUewLLeTxBnQqhibl1" version="14.1.6" type="github">
  <diagram id="PiKxnvIjrsgJs1wlsUeW" name="Page-1">
    <mxGraphModel dx="946" dy="536" grid="1" gridSize="10" guides="1" tooltips="1" connect="1" arrows="1" fold="1" page="1" pageScale="1" pageWidth="827" pageHeight="1169" math="0" shadow="0">
      <root>
        <mxCell id="0" />
        <mxCell id="1" parent="0" />
        <mxCell id="HSDTwxsoNh3ySaXqz42C-1" value="Consistency" style="ellipse;whiteSpace=wrap;html=1;aspect=fixed;sketch=1;fillColor=#d5e8d4;strokeColor=#82b366;" vertex="1" parent="1">
          <mxGeometry x="160" y="160" width="160" height="160" as="geometry" />
        </mxCell>
        <mxCell id="HSDTwxsoNh3ySaXqz42C-5" value="Availability" style="ellipse;whiteSpace=wrap;html=1;aspect=fixed;fillColor=#dae8fc;sketch=1;strokeColor=#6c8ebf;" vertex="1" parent="1">
          <mxGeometry x="300" y="160" width="160" height="160" as="geometry" />
        </mxCell>
        <mxCell id="HSDTwxsoNh3ySaXqz42C-6" value="Partition Tolerance" style="ellipse;whiteSpace=wrap;html=1;aspect=fixed;fillColor=#ffe6cc;sketch=1;strokeColor=#d79b00;" vertex="1" parent="1">
          <mxGeometry x="230" y="280" width="160" height="160" as="geometry" />
        </mxCell>
        <mxCell id="HSDTwxsoNh3ySaXqz42C-7" value="CA" style="text;html=1;strokeColor=none;fillColor=none;align=center;verticalAlign=middle;whiteSpace=wrap;rounded=0;" vertex="1" parent="1">
          <mxGeometry x="290" y="230" width="40" height="20" as="geometry" />
        </mxCell>
        <mxCell id="HSDTwxsoNh3ySaXqz42C-8" value="CP" style="text;html=1;strokeColor=none;fillColor=none;align=center;verticalAlign=middle;whiteSpace=wrap;rounded=0;" vertex="1" parent="1">
          <mxGeometry x="260" y="290" width="40" height="20" as="geometry" />
        </mxCell>
        <mxCell id="HSDTwxsoNh3ySaXqz42C-9" value="&lt;b&gt;&lt;font color=&quot;#ff6666&quot;&gt;AP&lt;/font&gt;&lt;/b&gt;" style="text;html=1;strokeColor=none;fillColor=none;align=center;verticalAlign=middle;whiteSpace=wrap;rounded=0;" vertex="1" parent="1">
          <mxGeometry x="320" y="290" width="40" height="20" as="geometry" />
        </mxCell>
      </root>
    </mxGraphModel>
  </diagram>
</mxfile>
